<?xml version="1.0" encoding="UTF-8" standalone="no"?>
<!-- Created with Inkscape (http://www.inkscape.org/) -->

<svg
   xmlns:dc="http://purl.org/dc/elements/1.1/"
   xmlns:cc="http://creativecommons.org/ns#"
   xmlns:rdf="http://www.w3.org/1999/02/22-rdf-syntax-ns#"
   xmlns:svg="http://www.w3.org/2000/svg"
   xmlns="http://www.w3.org/2000/svg"
   xmlns:xlink="http://www.w3.org/1999/xlink"
   xmlns:sodipodi="http://sodipodi.sourceforge.net/DTD/sodipodi-0.dtd"
   xmlns:inkscape="http://www.inkscape.org/namespaces/inkscape"
   width="744.09448819"
   height="1052.3622047"
   id="svg2"
   version="1.1"
   inkscape:version="0.48.5 r10040"
   sodipodi:docname="New document 1">
  <defs
     id="defs4" />
  <sodipodi:namedview
     id="base"
     pagecolor="#ffffff"
     bordercolor="#666666"
     borderopacity="1.0"
     inkscape:pageopacity="0.0"
     inkscape:pageshadow="2"
     inkscape:zoom="0.35"
     inkscape:cx="-238.40611"
     inkscape:cy="598.07821"
     inkscape:document-units="px"
     inkscape:current-layer="layer1"
     showgrid="false"
     inkscape:window-width="1366"
     inkscape:window-height="705"
     inkscape:window-x="-8"
     inkscape:window-y="-8"
     inkscape:window-maximized="1" />
  <metadata
     id="metadata7">
    <rdf:RDF>
      <cc:Work
         rdf:about="">
        <dc:format>image/svg+xml</dc:format>
        <dc:type
           rdf:resource="http://purl.org/dc/dcmitype/StillImage" />
        <dc:title></dc:title>
      </cc:Work>
    </rdf:RDF>
  </metadata>
  <g
     inkscape:label="Layer 1"
     inkscape:groupmode="layer"
     id="layer1">
    <path
       style="fill:#f68b23"
       inkscape:connector-curvature="0"
       d="m 375,788.36218 c 215.85,0 256,-40.15 256,-256 0,-215.451 -39.281,-256 -256,-256 -215.029,0 -256,40.549 -256,256 0,216.508 40.278,256 256,256 z"
       id="path2986"
       inkscape:export-filename="C:\Users\user\Desktop\dzNews.png"
       inkscape:export-xdpi="90"
       inkscape:export-ydpi="90" />
    <path
       style="fill:#f68b23"
       inkscape:connector-curvature="0"
       d="M 627.712,619.36218 H 122.275 c 11.697,126.098 58.575,161.947 200.058,168 h 105.053 c 141.709,-6.087 188.609,-42.216 200.326,-168 z"
       id="path2988"
       inkscape:export-filename="C:\Users\user\Desktop\dzNews.png"
       inkscape:export-xdpi="90"
       inkscape:export-ydpi="90" />
    <path
       style="fill:#f37c21"
       inkscape:connector-curvature="0"
       d="m 631,532.36218 c 0,-194.215 -31.926,-246.305 -196.963,-254.687 l 43.226,475.386 102.901,-8.159 c 40.119,-36.415 50.836,-101.032 50.836,-212.54 z"
       id="path2990"
       inkscape:export-filename="C:\Users\user\Desktop\dzNews.png"
       inkscape:export-xdpi="90"
       inkscape:export-ydpi="90" />
    <path
       style="fill:#f37c21"
       inkscape:connector-curvature="0"
       d="m 119.017,539.60918 c 0.006,1.358 0.013,2.712 0.023,4.056 0.004,0.545 0.008,1.087 0.013,1.629 0.011,1.402 0.024,2.796 0.04,4.182 0.005,0.428 0.009,0.857 0.014,1.284 0.02,1.706 0.043,3.403 0.07,5.086 10e-4,0.086 0.002,0.172 0.004,0.258 0.091,5.698 0.217,11.261 0.382,16.692 10e-4,0.041 0.003,0.082 0.004,0.122 0.055,1.799 0.114,3.585 0.177,5.356 l 401.447,196.809 c 65.111,-17.834 93.606,-56.915 104.298,-136.05 l -495.334,-243.807 c -0.251,1.066 -0.497,2.142 -0.739,3.226 -0.066,0.298 -0.13,0.602 -0.196,0.901 -0.173,0.788 -0.345,1.577 -0.513,2.375 -0.083,0.393 -0.162,0.792 -0.244,1.188 -0.147,0.713 -0.294,1.427 -0.437,2.147 -0.087,0.439 -0.171,0.883 -0.257,1.324 -0.133,0.686 -0.266,1.372 -0.395,2.065 -0.087,0.468 -0.172,0.941 -0.258,1.413 -0.123,0.676 -0.246,1.353 -0.366,2.036 -0.086,0.487 -0.169,0.979 -0.253,1.469 -0.116,0.678 -0.231,1.358 -0.344,2.043 -0.082,0.5 -0.163,1.003 -0.244,1.506 -0.11,0.683 -0.218,1.369 -0.325,2.058 -0.08,0.515 -0.158,1.032 -0.236,1.551 -0.103,0.685 -0.205,1.372 -0.305,2.063 -0.077,0.532 -0.154,1.066 -0.229,1.603 -0.098,0.693 -0.194,1.389 -0.288,2.089 -0.073,0.535 -0.145,1.07 -0.216,1.608 -0.094,0.714 -0.186,1.432 -0.277,2.152 -0.068,0.537 -0.136,1.074 -0.203,1.615 -0.089,0.728 -0.177,1.462 -0.263,2.197 -0.064,0.54 -0.128,1.08 -0.19,1.624 -0.086,0.756 -0.17,1.519 -0.254,2.282 -0.058,0.531 -0.117,1.061 -0.174,1.596 -0.084,0.793 -0.165,1.593 -0.247,2.393 -0.052,0.514 -0.106,1.026 -0.157,1.543 -0.084,0.852 -0.164,1.712 -0.245,2.571 -0.045,0.476 -0.091,0.948 -0.134,1.427 -0.09,0.99 -0.177,1.99 -0.263,2.991 -0.031,0.355 -0.063,0.706 -0.093,1.063 -0.229,2.73 -0.443,5.502 -0.642,8.314 -0.033,0.464 -0.063,0.934 -0.095,1.399 -0.065,0.944 -0.13,1.888 -0.191,2.842 -0.035,0.55 -0.068,1.107 -0.103,1.661 -0.055,0.881 -0.11,1.762 -0.162,2.651 -0.035,0.594 -0.067,1.194 -0.101,1.792 -0.048,0.855 -0.096,1.709 -0.141,2.571 -0.033,0.627 -0.064,1.259 -0.096,1.89 -0.043,0.847 -0.085,1.695 -0.126,2.549 -0.03,0.645 -0.059,1.295 -0.089,1.944 -0.038,0.847 -0.076,1.694 -0.112,2.548 -0.028,0.668 -0.055,1.34 -0.082,2.013 -0.034,0.848 -0.067,1.697 -0.098,2.551 -0.025,0.682 -0.05,1.367 -0.074,2.053 -0.03,0.849 -0.058,1.701 -0.086,2.557 -0.023,0.707 -0.045,1.416 -0.067,2.128 -0.026,0.851 -0.05,1.705 -0.074,2.563 -0.02,0.714 -0.039,1.429 -0.058,2.147 -0.023,0.878 -0.044,1.761 -0.065,2.645 -0.017,0.707 -0.033,1.414 -0.048,2.126 -0.019,0.904 -0.037,1.815 -0.055,2.726 -0.014,0.709 -0.028,1.417 -0.04,2.129 -0.016,0.922 -0.03,1.851 -0.045,2.779 -0.011,0.711 -0.022,1.42 -0.032,2.135 -0.013,0.954 -0.024,1.915 -0.035,2.877 -0.008,0.701 -0.017,1.399 -0.024,2.104 -0.01,1.023 -0.018,2.055 -0.026,3.086 -0.005,0.649 -0.011,1.294 -0.015,1.947 -0.007,1.149 -0.012,2.309 -0.017,3.468 -0.002,0.55 -0.006,1.095 -0.008,1.648 0,1.712 -0.003,3.437 -0.003,5.174 0,1.889 0.004,3.76 0.01,5.622 0.002,0.544 0.005,1.083 0.007,1.625 z"
       id="path2992"
       inkscape:export-filename="C:\Users\user\Desktop\dzNews.png"
       inkscape:export-xdpi="90"
       inkscape:export-ydpi="90" />
    <path
       style="fill:#f9a14b"
       inkscape:connector-curvature="0"
       d="m 433.297,277.63818 -313.513,208.19 c -0.542,14.524 -0.784,30.013 -0.784,46.534 0,21.71 0.406,41.635 1.353,59.924 l 435.687,-289.321 c -29.105,-15.332 -68.858,-22.64 -122.743,-25.327 z"
       id="path2994"
       inkscape:export-filename="C:\Users\user\Desktop\dzNews.png"
       inkscape:export-xdpi="90"
       inkscape:export-ydpi="90" />
    <path
       style="fill:#f37c21"
       inkscape:connector-curvature="0"
       d="m 338.628,787.91918 -180.791,-454.763 c -24.357,30.804 -34.691,77.159 -37.774,145.896 l 118.715,298.617 c 27.083,6.174 59.986,9.202 99.85,10.25 z"
       id="path2996"
       inkscape:export-filename="C:\Users\user\Desktop\dzNews.png"
       inkscape:export-xdpi="90"
       inkscape:export-ydpi="90" />
    <path
       style="fill:#f37c21"
       inkscape:connector-curvature="0"
       d="m 455.474,279.07718 c -23.643,-1.929 -50.341,-2.715 -80.474,-2.715 -2.863,0 -5.688,0.009 -8.49,0.023 l -10.198,511.868 c 6.08,0.073 12.304,0.109 18.688,0.109 25.912,0 49.284,-0.581 70.367,-1.973 l 10.107,-507.312 z"
       id="path2998"
       inkscape:export-filename="C:\Users\user\Desktop\dzNews.png"
       inkscape:export-xdpi="90"
       inkscape:export-ydpi="90" />
    <path
       style="fill:#f9a14b"
       inkscape:connector-curvature="0"
       d="m 630.981,539.97018 -441.67,219.277 c 32.11,18.651 77.958,26.377 142.773,28.482 l 292.951,-145.443 c 4.085,-28.493 5.762,-62.295 5.946,-102.316 z"
       id="path3000"
       inkscape:export-filename="C:\Users\user\Desktop\dzNews.png"
       inkscape:export-xdpi="90"
       inkscape:export-ydpi="90" />
    <path
       style="fill:#f68b23"
       inkscape:connector-curvature="0"
       d="m 626.608,434.25318 -507.555,111.095 c 0.28,34.543 1.731,64.346 4.96,90.021 l 506.967,-110.965 c -0.164,-34.474 -1.421,-64.33 -4.372,-90.151 z"
       id="path3002"
       inkscape:export-filename="C:\Users\user\Desktop\dzNews.png"
       inkscape:export-xdpi="90"
       inkscape:export-ydpi="90" />
    <path
       style="fill:#f37c21"
       inkscape:connector-curvature="0"
       d="m 555.918,761.73218 c 27.582,-14.557 45.648,-36.354 57.128,-68.317 L 184.73,308.79118 c -25.031,16.21 -41.17,39.827 -51.187,73.652 l 422.375,379.289 z"
       id="path3004"
       inkscape:export-filename="C:\Users\user\Desktop\dzNews.png"
       inkscape:export-xdpi="90"
       inkscape:export-ydpi="90" />
    <path
       style="fill:#f68b23"
       inkscape:connector-curvature="0"
       d="m 626.652,629.65418 c 3.134,-27.604 4.348,-59.794 4.348,-97.292 0,-170.466 -24.595,-231.439 -142.204,-249.471 l 137.856,346.763 z"
       id="path3006"
       inkscape:export-filename="C:\Users\user\Desktop\dzNews.png"
       inkscape:export-xdpi="90"
       inkscape:export-ydpi="90" />
    <path
       style="fill:#f68b23"
       inkscape:connector-curvature="0"
       d="m 374.088,788.36118 c 0.305,0 0.606,10e-4 0.912,10e-4 35.571,0 66.372,-1.072 93.013,-3.835 l 130.555,-442.44 c -16.799,-25.938 -41.549,-42.329 -77.375,-52.252 l -147.105,498.526 z"
       id="path3008"
       inkscape:export-filename="C:\Users\user\Desktop\dzNews.png"
       inkscape:export-xdpi="90"
       inkscape:export-ydpi="90" />
    <g
       id="g3876"
       transform="translate(-16,-48)"
       inkscape:export-filename="C:\Users\user\Desktop\dzNews.png"
       inkscape:export-xdpi="90"
       inkscape:export-ydpi="90">
      <path
         sodipodi:nodetypes="cscsc"
         inkscape:connector-curvature="0"
         id="path3874"
         d="m 553.5675,401.13072 c -55.27588,-54.22825 -145.00964,-24.83973 -143.03594,57.21437 1.58668,65.96403 80.35042,111.34308 141.84398,48.87062 -75.87423,106.14948 -190.2039,18.33953 -189.5226,-47.67865 0.8268,-80.12012 109.43869,-162.53228 190.71456,-58.40634 z"
         style="fill:#e80000;fill-opacity:0.54497358;stroke:none" />
      <path
         transform="matrix(0.27989402,0.16945485,-0.16945485,0.27989402,702.31265,380.85777)"
         inkscape:transform-center-y="-0.64878627"
         inkscape:transform-center-x="-4.7106401"
         d="m -281.73544,612.14643 -121.414,-49.1437 -79.89412,103.79495 9.21944,-130.65781 -123.40351,-43.90942 127.11193,-31.60728 3.62656,-130.93246 69.34006,111.12344 125.64484,-37.01129 -84.25742,100.28534 z"
         inkscape:randomized="0"
         inkscape:rounded="0"
         inkscape:flatsided="false"
         sodipodi:arg2="1.305705"
         sodipodi:arg1="0.67738644"
         sodipodi:r2="64.31575"
         sodipodi:r1="177.44119"
         sodipodi:cy="500.93362"
         sodipodi:cx="-420"
         sodipodi:sides="5"
         id="path3872"
         style="fill:#e80000;fill-opacity:0.54497358"
         sodipodi:type="star" />
    </g>
    <path
       style="opacity:0.5;fill:#aa4824"
       inkscape:connector-curvature="0"
       d="m 453.534,471.41818 c 1.388,1.512 2.758,3.042 4.114,4.583 0.124,0.141 0.251,0.281 0.375,0.423 1.278,1.458 2.539,2.932 3.789,4.416 0.193,0.23 0.389,0.457 0.581,0.688 1.196,1.429 2.376,2.872 3.545,4.325 0.236,0.293 0.473,0.585 0.708,0.878 1.131,1.417 2.248,2.845 3.353,4.283 0.259,0.337 0.518,0.673 0.775,1.011 1.078,1.415 2.141,2.84 3.193,4.275 0.272,0.371 0.543,0.742 0.813,1.114 1.03,1.419 2.049,2.848 3.054,4.286 0.276,0.395 0.55,0.792 0.824,1.188 0.991,1.433 1.971,2.873 2.936,4.325 0.27,0.406 0.536,0.814 0.805,1.221 0.959,1.457 1.908,2.92 2.841,4.396 0.255,0.404 0.506,0.811 0.76,1.216 0.933,1.491 1.858,2.988 2.764,4.497 0.232,0.385 0.458,0.775 0.687,1.161 0.917,1.543 1.826,3.09 2.715,4.651 0.189,0.331 0.371,0.666 0.559,0.998 0.918,1.626 1.827,3.257 2.714,4.902 0.117,0.216 0.229,0.436 0.345,0.652 4.976,9.286 9.461,18.871 13.42,28.723 0.123,0.305 0.252,0.606 0.373,0.912 0.594,1.493 1.164,2.999 1.734,4.504 0.245,0.648 0.499,1.292 0.74,1.943 0.504,1.36 0.986,2.729 1.469,4.099 0.285,0.808 0.577,1.613 0.856,2.424 0.442,1.287 0.865,2.583 1.289,3.879 0.296,0.904 0.596,1.806 0.883,2.714 0.394,1.245 0.772,2.497 1.149,3.749 0.293,0.97 0.587,1.94 0.869,2.914 0.352,1.214 0.691,2.434 1.027,3.654 0.283,1.025 0.564,2.05 0.836,3.08 0.314,1.191 0.618,2.386 0.917,3.583 0.268,1.071 0.532,2.143 0.788,3.218 0.279,1.173 0.55,2.35 0.815,3.528 0.25,1.111 0.493,2.223 0.729,3.339 0.246,1.157 0.485,2.317 0.717,3.479 0.229,1.15 0.449,2.303 0.665,3.458 0.213,1.14 0.423,2.282 0.622,3.427 0.207,1.19 0.403,2.383 0.595,3.577 0.181,1.124 0.362,2.247 0.53,3.375 0.183,1.228 0.352,2.461 0.52,3.694 0.15,1.106 0.303,2.21 0.441,3.32 0.158,1.271 0.298,2.547 0.44,3.823 0.12,1.082 0.245,2.163 0.353,3.248 0.132,1.326 0.243,2.658 0.357,3.99 0.089,1.044 0.187,2.086 0.265,3.133 0.105,1.412 0.187,2.831 0.272,4.249 0.058,0.975 0.128,1.948 0.177,2.926 0.079,1.586 0.13,3.178 0.184,4.77 0.027,0.819 0.069,1.634 0.089,2.455 0.061,2.416 0.095,4.838 0.096,7.268 h -55.507 c -0.088,-129.347 -105.134,-234.556 -234.358,-234.65 l 0,0.38 49.424,49.424 c 6.137,1.65 12.151,3.598 18.029,5.828 0.051,0.019 0.101,0.039 0.152,0.058 5.787,2.202 11.44,4.676 16.945,7.409 0.163,0.081 0.325,0.162 0.487,0.243 3.63,1.815 7.197,3.737 10.692,5.772 0.077,0.045 0.154,0.092 0.231,0.137 1.588,0.928 3.16,1.881 4.719,2.852 0.282,0.176 0.563,0.351 0.844,0.528 1.595,1.006 3.178,2.029 4.742,3.081 0.036,0.024 0.072,0.047 0.108,0.071 1.626,1.095 3.233,2.218 4.824,3.361 0.277,0.199 0.55,0.403 0.826,0.603 1.272,0.925 2.532,1.865 3.78,2.82 0.369,0.282 0.739,0.564 1.106,0.849 1.409,1.094 2.805,2.203 4.183,3.335 0.081,0.066 0.163,0.13 0.244,0.197 1.45,1.196 2.878,2.417 4.291,3.654 0.374,0.327 0.743,0.659 1.114,0.989 1.062,0.944 2.114,1.899 3.155,2.866 0.392,0.364 0.784,0.726 1.173,1.093 1.353,1.277 2.693,2.567 4.008,3.883 1.135,1.136 2.253,2.287 3.36,3.45 0.344,0.362 0.68,0.732 1.021,1.097 0.759,0.811 1.517,1.623 2.262,2.446 0.386,0.427 0.763,0.861 1.145,1.291 0.692,0.779 1.382,1.559 2.062,2.349 0.382,0.445 0.758,0.895 1.136,1.343 0.67,0.793 1.337,1.589 1.994,2.394 0.361,0.443 0.718,0.889 1.075,1.335 0.667,0.832 1.33,1.668 1.983,2.511 0.328,0.424 0.654,0.85 0.979,1.276 0.677,0.888 1.346,1.782 2.007,2.682 0.287,0.391 0.573,0.782 0.858,1.175 0.701,0.969 1.392,1.946 2.076,2.929 0.23,0.331 0.461,0.66 0.689,0.992 0.748,1.09 1.482,2.189 2.208,3.294 0.154,0.234 0.31,0.467 0.463,0.702 0.836,1.285 1.656,2.581 2.461,3.888 0.037,0.06 0.075,0.119 0.112,0.179 6.132,9.97 11.369,20.54 15.614,31.598 l 0,10e-4 0,0 c 5.321,13.864 9.083,28.492 11.051,43.68 0,0 0,0 0,0 0,0 0,0.001 0,0.001 0.248,1.911 0.463,3.832 0.653,5.76 0.039,0.392 0.069,0.786 0.106,1.179 0.137,1.477 0.258,2.957 0.361,4.443 0.04,0.574 0.076,1.15 0.111,1.726 0.083,1.375 0.15,2.754 0.203,4.136 0.022,0.553 0.048,1.104 0.065,1.659 0.057,1.894 0.095,3.794 0.097,5.701 h -8.27 -47.332 v -0.099 h -0.021 c -0.054,-34.297 -12.706,-66.775 -35.707,-91.805 -0.653,-0.71 -1.312,-1.415 -1.98,-2.114 -0.69,-0.72 -1.386,-1.436 -2.094,-2.143 -2.399,-2.402 -4.873,-4.704 -7.417,-6.904 -0.538,-0.465 -1.085,-0.918 -1.63,-1.375 -0.312,-0.262 -0.621,-0.53 -0.935,-0.789 -1.544,-1.27 -3.115,-2.497 -4.706,-3.692 -0.189,-0.142 -0.375,-0.289 -0.564,-0.43 -2.523,-1.875 -5.105,-3.652 -7.738,-5.34 -0.163,-0.104 -0.323,-0.214 -0.487,-0.317 -0.83,-0.527 -1.666,-1.041 -2.506,-1.548 -0.106,-0.064 -0.209,-0.131 -0.315,-0.194 -1.755,-1.055 -3.534,-2.064 -5.332,-3.036 -0.143,-0.077 -0.283,-0.158 -0.426,-0.235 -19.435,-10.417 -41.256,-15.971 -63.843,-15.99 l 54.221,54.221 c 16.944,5.334 29.233,21.167 29.233,39.873 0,23.085 -18.714,41.798 -41.798,41.798 -12.988,0 -24.592,-5.924 -32.258,-15.216 -0.544,-0.356 -1.043,-0.68 -1.477,-0.955 l 137.257,137.258 c 0.011,0 0.023,0 0.034,0 1.406,-0.009 2.804,-0.02 4.195,-0.033 0.359,-0.003 0.719,-0.007 1.078,-0.011 40.181,-0.397 73.889,-2.427 102.107,-7.076 l -0.007,-0.007 c 54.046,-8.906 87.964,-27.421 108.68,-62.481 0.006,-0.01 0.011,-0.019 0.017,-0.029 0.502,-0.85 0.997,-1.71 1.483,-2.58 0,0 0,0 0,0 2.433,-4.348 4.673,-8.942 6.736,-13.793 0.031,-0.073 0.062,-0.146 0.093,-0.219 0.375,-0.887 0.745,-1.783 1.109,-2.687 0.036,-0.089 0.072,-0.178 0.107,-0.267 0.376,-0.939 0.746,-1.888 1.109,-2.846 0.011,-0.03 0.023,-0.059 0.034,-0.089 1.152,-3.043 2.241,-6.181 3.27,-9.416 0.009,-0.028 0.017,-0.056 0.026,-0.084 0.32,-1.009 0.634,-2.028 0.943,-3.056 0.043,-0.144 0.086,-0.289 0.129,-0.433 0.277,-0.928 0.548,-1.864 0.816,-2.807 0.05,-0.177 0.101,-0.355 0.15,-0.533 0.267,-0.951 0.529,-1.91 0.786,-2.876 0.039,-0.145 0.078,-0.289 0.116,-0.434 0.897,-3.394 1.74,-6.885 2.528,-10.478 0.013,-0.059 0.026,-0.119 0.038,-0.179 0.241,-1.1 0.476,-2.211 0.707,-3.33 0.044,-0.212 0.087,-0.426 0.13,-0.639 0.2,-0.982 0.397,-1.97 0.589,-2.966 0.05,-0.26 0.1,-0.521 0.15,-0.782 0.188,-0.988 0.373,-1.984 0.554,-2.986 0.043,-0.237 0.086,-0.474 0.129,-0.712 0.197,-1.105 0.39,-2.22 0.579,-3.343 0.022,-0.129 0.044,-0.256 0.066,-0.385 0.434,-2.597 0.846,-5.24 1.235,-7.931 l -171.422,-171.424 z"
       id="path3010"
       inkscape:export-filename="C:\Users\user\Desktop\dzNews.png"
       inkscape:export-xdpi="90"
       inkscape:export-ydpi="90" />
    <path
       style="fill:#ffffff"
       inkscape:connector-curvature="0"
       d="m 323.515,625.44418 c 0,23.085 -18.714,41.798 -41.798,41.798 -23.085,0 -41.798,-18.714 -41.798,-41.798 0,-23.085 18.714,-41.798 41.798,-41.798 23.084,0 41.798,18.714 41.798,41.798 z m 121.441,-163.001 c -52.529,-52.531 -124.909,-85.044 -204.822,-85.081 v 55.349 c 129.224,0.094 234.271,105.304 234.358,234.651 H 530 c -0.041,-79.943 -32.532,-152.371 -85.044,-204.919 z m -204.924,13.531 10e-4,55.376 c 36.151,0.023 70.341,14.224 95.928,39.85 25.582,25.545 39.723,59.788 39.781,96.063 h 0.021 v 0.099 h 55.602 c -0.046,-52.748 -21.485,-100.525 -56.152,-135.217 -34.672,-34.683 -82.432,-56.139 -135.181,-56.171 z"
       id="path3012"
       inkscape:export-filename="C:\Users\user\Desktop\dzNews.png"
       inkscape:export-xdpi="90"
       inkscape:export-ydpi="90" />
    <image
       y="49.505039"
       x="-958.78571"
       id="image3044"
       xlink:href="file:///E:/meilleurs%20t%C3%A9l%C3%A9chargements/design/algeria.png"
       height="1080"
       width="1039" />
    <path
       sodipodi:type="arc"
       style="fill:#2e8825;fill-opacity:1;stroke:none"
       id="path3880"
       sodipodi:cx="281.45377"
       sodipodi:cy="624.81512"
       sodipodi:rx="42.552677"
       sodipodi:ry="42.931484"
       d="m 324.00644,624.81512 a 42.552677,42.931484 0 0 1 -85.10097,0.6158"
       transform="matrix(-0.00359956,0.98218924,-0.97646403,-0.00357858,892.83107,351.36568)"
       sodipodi:start="0"
       sodipodi:end="3.1272485"
       sodipodi:open="true"
       inkscape:transform-center-y="-0.0011016546"
       inkscape:transform-center-x="21.03724"
       inkscape:export-filename="C:\Users\user\Desktop\dzNews.png"
       inkscape:export-xdpi="90"
       inkscape:export-ydpi="90" />
    <path
       sodipodi:type="star"
       style="fill:#c60000;fill-opacity:1"
       id="path3047"
       sodipodi:sides="5"
       sodipodi:cx="-420"
       sodipodi:cy="500.93362"
       sodipodi:r1="177.44119"
       sodipodi:r2="64.31575"
       sodipodi:arg1="0.67738644"
       sodipodi:arg2="1.305705"
       inkscape:flatsided="false"
       inkscape:rounded="0"
       inkscape:randomized="0"
       d="m -281.73544,612.14643 -121.414,-49.1437 -79.89412,103.79495 9.21944,-130.65781 -123.40351,-43.90942 127.11193,-31.60728 3.62656,-130.93246 69.34006,111.12344 125.64484,-37.01129 -84.25742,100.28534 z"
       inkscape:transform-center-x="-0.55947402"
       inkscape:transform-center-y="-1.2644956"
       transform="matrix(0.10396652,0.04031733,-0.04031733,0.10396652,355.12432,589.74301)"
       inkscape:export-filename="C:\Users\user\Desktop\dzNews.png"
       inkscape:export-xdpi="90"
       inkscape:export-ydpi="90" />
    <path
       style="fill:#c60000;fill-opacity:1;stroke:none"
       d="m 309.56227,608.25672 c -18.83847,-18.48142 -49.42045,-8.46558 -48.7478,19.49912 0.54075,22.48107 27.38407,37.94662 48.34157,16.6555 -25.85855,36.1766 -64.82301,6.25026 -64.59084,-16.24927 0.28178,-27.30558 37.2976,-55.39231 64.99707,-19.90535 z"
       id="path3827"
       inkscape:connector-curvature="0"
       sodipodi:nodetypes="cscsc"
       inkscape:export-filename="C:\Users\user\Desktop\dzNews.png"
       inkscape:export-xdpi="90"
       inkscape:export-ydpi="90" />
    <path
       id="path3858"
       d="m -1099.2857,336.93361 c 215.84999,0 255.99999,-40.15 255.99999,-256.000001 0,-215.450999 -39.281,-255.999999 -255.99999,-255.999999 -215.029,0 -256,40.549 -256,255.999999 0,216.508001 40.278,256.000001 256,256.000001 z"
       inkscape:connector-curvature="0"
       style="fill:#f68b23" />
    <path
       transform="matrix(0.27989402,0.16945485,-0.16945485,0.27989402,-700.54449,-139.14223)"
       inkscape:transform-center-y="-0.64878627"
       inkscape:transform-center-x="-4.7106401"
       d="m -281.73544,612.14643 -121.414,-49.1437 -79.89412,103.79495 9.21944,-130.65781 -123.40351,-43.90942 127.11193,-31.60728 3.62656,-130.93246 69.34006,111.12344 125.64484,-37.01129 -84.25742,100.28534 z"
       inkscape:randomized="0"
       inkscape:rounded="0"
       inkscape:flatsided="false"
       sodipodi:arg2="1.305705"
       sodipodi:arg1="0.67738644"
       sodipodi:r2="64.31575"
       sodipodi:r1="177.44119"
       sodipodi:cy="500.93362"
       sodipodi:cx="-420"
       sodipodi:sides="5"
       id="path3860"
       style="fill:#e80000;fill-opacity:1"
       sodipodi:type="star" />
    <path
       sodipodi:nodetypes="cscsc"
       inkscape:connector-curvature="0"
       id="path3862"
       d="m -849.28964,-118.86928 c -55.27588,-54.22825 -145.00964,-24.83973 -143.03594,57.214369 1.58668,65.9640296 80.35042,111.34308 141.84398,48.87062 -75.87423,106.14948 -190.2039,18.3395296 -189.5226,-47.67865 0.8268,-80.120119 109.43869,-162.532279 190.71456,-58.406339 z"
       style="fill:#e80000;fill-opacity:1;stroke:none" />
  </g>
</svg>
